<?xml version="1.0" encoding="utf-8"?><svg xmlns="http://www.w3.org/2000/svg" xmlns:xlink="http://www.w3.org/1999/xlink"><symbol fill="none" viewBox="0 0 1440 633" id="graficBig" xmlns="http://www.w3.org/2000/svg"><path d="M-23 625.829c4.721 10.727 159.43-54.171 204.742-114.568 27.041-36.044 53.303-113.745 81.124-65.255 11.589 20.2 11.589 59.216 21.89 51.492 10.302-7.724 32.192-78.525 47.645-91.398 15.452-12.872 25.492 7.948 34.767 0 9.014-7.723.582-81.099 32.192-81.099 15.452 0 15.452 69.514 27.041 69.514 21.891 0 21.891-33.47 30.905-30.895 9.014 2.574 30.904 54.066 50.219 54.066 19.316 0 28.329-9.011 41.206-46.342 12.877-37.331 33.48-79.812 50.22-73.375 16.74 6.436 14.164 25.745 30.904 16.734 16.74-9.011 20.603-68.226 37.343-42.48 16.74 25.746 9.014 63.077 23.178 52.778 14.165-10.298 16.74-38.618 32.192 0 15.453 38.619 11.59 84.961 24.466 69.514 12.877-15.447 37.343-177.645 51.508-145.463 14.164 32.182 23.178 55.353 38.63 56.64 15.452 1.288 25.754-10.299 37.343-33.469 11.589-23.171 23.178-63.077 48.932-70.8 25.754-7.724 55.76-55.682 61.809-70.801 30.904-77.236 45.064-145.859 65.674-120.113 20.6 25.745 41.2 170.317 52.79 157.445 11.59-12.873 18.03-115.855 36.06-96.546 18.03 19.31 7.72 47.629 20.6 38.618 12.88-9.011 18.03-45.055 36.06-16.735 18.02 28.321 25.75 69.514 36.05 74.663 10.3 5.149 42.49-27.033 51.51-57.928 9.01-30.894 28.59 4.435 41.2-9.011 19.32-20.596 27.05-36.44 47.65-60.502 36.9-43.092 87.56 37.76 99.15 52.778" stroke="#CAE3FD" stroke-width="5"/><path d="M1232.49 168.954c10.3 5.149 42.49-27.033 51.51-57.928 9.01-30.894 28.59 4.436 41.2-9.01 19.32-20.597 36.3-55.516 64.8-74.516M837.172 306.693c15.453 1.287 25.754-10.299 37.343-33.47 11.589-23.171 23.178-63.076 48.932-70.8 25.754-7.724 55.76-55.682 61.809-70.8C1016.16 54.386 1024.5.5 1044.5 4M747.034 396.515c12.877-15.447 37.343-177.645 51.508-145.463M523.5 415.5c28-26 48.049-120.468 73.5-117.5 17.814 2.078 16.115 26.714 32.855 17.703s20.603-68.226 37.343-42.48M284.756 498.498c10.302-7.724 32.192-78.524 47.645-91.397 15.452-12.873 25.492 7.947 34.767 0 9.014-7.724.582-81.099 32.192-81.099M-23 627.829c4.721 10.727 159.43-54.171 204.742-114.568C208.783 477.217 216 434.5 244.5 430.5" stroke="#295EE6" stroke-width="7"/><path d="M775.939 395.939a1.502 1.502 0 000 2.122l9.546 9.546a1.502 1.502 0 002.122 0 1.502 1.502 0 000-2.122L779.121 397l8.486-8.485a1.502 1.502 0 000-2.122 1.502 1.502 0 00-2.122 0l-9.546 9.546zM837 395.5h-60v3h60v-3zM774.061 238.061a1.502 1.502 0 000-2.122l-9.546-9.546a1.502 1.502 0 00-2.122 0 1.502 1.502 0 000 2.122l8.486 8.485-8.486 8.485a1.502 1.502 0 000 2.122 1.502 1.502 0 002.122 0l9.546-9.546zM713 238.5h60v-3h-60v3z" fill="#295EE6"/><circle cx="744" cy="401" r="8" fill="#000"/><circle cx="794" cy="248" r="8" fill="#000"/></symbol></svg>