<?xml version="1.0" encoding="iso-8859-1"?><!DOCTYPE svg PUBLIC "-//W3C//DTD SVG 1.1//EN" "http://www.w3.org/Graphics/SVG/1.1/DTD/svg11.dtd"><svg xmlns="http://www.w3.org/2000/svg" xmlns:xlink="http://www.w3.org/1999/xlink"><symbol viewBox="0 0 40 40" id="arrow-circle" xmlns="http://www.w3.org/2000/svg"><path d="M20 0C8.973 0 0 8.973 0 20s8.973 20 20 20 20-8.973 20-20S31.027 0 20 0zm7.756 23.465l-6.279 5.332a2.283 2.283 0 01-2.955 0l-6.279-5.332a2.283 2.283 0 012.954-3.479l2.521 2.141v-9.186a2.28 2.28 0 114.563 0v9.186l2.521-2.141a2.287 2.287 0 013.218.262c.814.961.696 2.4-.264 3.217z"/></symbol><symbol viewBox="0 0 30 30" id="arrow-down" xmlns="http://www.w3.org/2000/svg"><path d="M13.938 17.014L5.44 9.508c-.587-.52-.587-1.358 0-1.871l1.413-1.248c.587-.519 1.537-.519 2.118 0l6.023 5.32 6.023-5.32c.587-.519 1.537-.519 2.118 0l1.424 1.242c.588.519.588 1.358 0 1.871l-8.497 7.507c-.587.524-1.537.524-2.124.005zm2.124 10.598l8.497-7.507c.588-.519.588-1.358 0-1.871l-1.412-1.248c-.587-.518-1.537-.518-2.118 0L15 22.302 8.977 16.98c-.587-.519-1.537-.519-2.118 0L5.44 18.228c-.587.52-.587 1.358 0 1.871l8.498 7.507c.587.524 1.537.524 2.124.006z"/></symbol><symbol viewBox="0 0 30 30" id="arrows-inside" xmlns="http://www.w3.org/2000/svg"><path d="M.314 24.942l6.65-5.763-2.204-1.801C3.747 16.5 4.464 15 5.896 15h7.5c.888 0 1.604.624 1.604 1.393v6.5c0 1.24-1.728 1.862-2.74.985l-2.081-1.914-6.65 5.764a1.191 1.191 0 01-1.516 0l-1.7-1.473a.844.844 0 010-1.313zM29.686 5.058l-6.65 5.763 2.204 1.801c1.013.878.296 2.378-1.136 2.378h-7.5C15.716 15 15 14.376 15 13.607v-6.5c0-1.24 1.728-1.862 2.74-.985l2.081 1.914 6.65-5.764a1.191 1.191 0 011.516 0l1.7 1.473a.844.844 0 010 1.313z"/></symbol><symbol viewBox="0 0 30 30" id="b" xmlns="http://www.w3.org/2000/svg"><path d="M22.913 14.036c.913-.997 1.476-2.212 1.619-3.494C24.974 6.455 21.385 3 16.914 3H4.96c-.254 0-.498.09-.678.251A.814.814 0 004 3.857V6.43c0 .227.101.445.28.606.18.16.425.25.68.25h1.91v15.43H4.96c-.255 0-.5.09-.68.25a.814.814 0 00-.28.606v2.572c0 .227.101.445.28.606.18.16.425.251.68.251h12.548c4.244 0 8.041-2.772 8.452-6.557.284-2.596-.982-4.932-3.047-6.407zm-11.26-6.75h5.261c.763 0 1.495.27 2.035.753.54.482.843 1.136.843 1.818 0 .682-.304 1.336-.843 1.818a3.06 3.06 0 01-2.035.754h-5.261V7.286zm5.261 15.428h-5.261v-6h5.261c.89 0 1.744.316 2.374.879.63.563.983 1.326.983 2.121 0 .796-.354 1.559-.983 2.122-.63.562-1.483.878-2.374.878z"/></symbol><symbol viewBox="0 0 30 30" id="circle" xmlns="http://www.w3.org/2000/svg"><path d="M29.106 16.875H16.02l8.715 9.26c.333.353.881.382 1.224.04 2.134-2.137 3.602-5.017 4.033-8.254.074-.554-.36-1.046-.886-1.046zm-.873-3.797C27.78 6.078 22.514.485 15.927.002c-.503-.037-.927.414-.927.95v13.11h12.34c.504 0 .928-.45.893-.984zm-15.88 3.797V2.971c0-.56-.463-1.02-.984-.94C4.797 3.016-.226 9.116.008 16.427c.24 7.508 6.325 13.665 13.395 13.57 2.779-.036 5.347-.988 7.459-2.579.435-.328.464-1.01.086-1.41l-8.595-9.134z"/></symbol><symbol viewBox="0 0 30 30" id="grafic" xmlns="http://www.w3.org/2000/svg"><path d="M29.063 22.167H3.75V3.958c0-.53-.42-.958-.938-.958H.938A.948.948 0 000 3.958v20.125C0 25.142.84 26 1.875 26h27.188a.948.948 0 00.937-.958v-1.917c0-.53-.42-.958-.938-.958zm-1.875-17.25H20.27c-1.253 0-1.88 1.548-.994 2.454l1.898 1.94-4.299 4.395-4.299-4.394a1.846 1.846 0 00-2.651 0L5.9 13.426a.973.973 0 000 1.355l1.325 1.355a.923.923 0 001.326 0l2.699-2.759 4.299 4.394c.732.75 1.92.75 2.651 0l5.625-5.75 1.899 1.941c.886.906 2.4.264 2.4-1.016V5.875a.947.947 0 00-.936-.958z"/></symbol><symbol viewBox="0 0 30 30" id="lines" xmlns="http://www.w3.org/2000/svg"><path d="M22.096 22.236a1 1 0 001.811-.002l2.459-5.255a.952.952 0 10-1.747-.755l-.759 1.911c-.323.816-1.466.849-1.836.053l-7.567-16.27a1 1 0 00-1.808-.012L2.672 22.67a.976.976 0 101.764.837l8.203-17.53a1 1 0 011.81-.002l7.647 16.262zM7.327 20.32a.94.94 0 101.708.783l3.632-8.076a1 1 0 011.82-.01l7.624 16.452a.916.916 0 101.66-.775L14.473 8.92a1 1 0 00-1.811.002L7.327 20.32z"/></symbol><symbol viewBox="0 0 30 30" id="scales" xmlns="http://www.w3.org/2000/svg"><path d="M24.75 24H16.5V10.184a3.747 3.747 0 002.033-2.226l6.188-2.074a.75.75 0 00.472-.95l-.476-1.422a.75.75 0 00-.95-.473L18.24 4.892A3.734 3.734 0 0015 3a3.75 3.75 0 00-3.75 3.75c0 .16.028.315.047.47L5.28 9.238a.75.75 0 00-.472.95l.476 1.422a.75.75 0 00.95.473l6.659-2.233c.19.13.395.24.609.334V26.25c0 .414.335.75.75.75h10.5a.75.75 0 00.75-.75v-1.5a.75.75 0 00-.751-.75zM30 17.25c0-.758.062-.41-3.988-8.508-.827-1.655-3.196-1.658-4.025 0-4.084 8.168-3.986 7.773-3.986 8.508H18c0 2.07 2.686 3.75 6 3.75s6-1.68 6-3.75zm-9.375-.75L24 9.75l3.375 6.75h-6.75zM8.012 14.742c-.827-1.655-3.196-1.658-4.025 0C-.097 22.91.001 22.515.001 23.25H0C0 25.32 2.686 27 6 27s6-1.68 6-3.75c0-.758.062-.41-3.988-8.508zM2.625 22.5L6 15.75l3.375 6.75h-6.75z"/></symbol><symbol viewBox="0 0 30 30" id="waves" xmlns="http://www.w3.org/2000/svg"><path d="M11.402 18.112c1.817-1.568 2.302-2.682 2.815-3.864.553-1.27 1.125-2.585 3.196-4.373 2.072-1.788 3.597-2.28 5.07-2.757 1.244-.404 2.43-.794 4-2.038L24.52 3.4a1.741 1.741 0 00-1.02-.397 1.803 1.803 0 00-1.073.27c-.71.454-1.31.646-2.135.912-7.428 2.387-9.394 7.408-9.842 8.433-1.55 3.541-4.664 4.253-5.142 4.407-1.294.416-2.85.915-4.743 2.262-.721.514-.754 1.458-.093 2.024l1.863 1.596c1.831-1.465 3.237-1.93 4.592-2.37 1.368-.441 2.659-.858 4.474-2.425zM29.526 7.689l-1.861-1.595c-1.833 1.466-3.239 1.932-4.597 2.372-1.367.442-2.659.86-4.476 2.426-1.817 1.565-2.301 2.681-2.812 3.863-.554 1.273-1.127 2.585-3.2 4.373-2.071 1.787-3.593 2.279-5.067 2.754-1.242.405-2.427.794-3.995 2.037L5.48 25.6a1.74 1.74 0 001.02.397c.383.023.764-.073 1.073-.27.708-.452 1.307-.644 2.132-.91 7.406-2.38 9.375-7.371 9.84-8.431 1.548-3.54 4.663-4.253 5.142-4.408 1.295-.416 2.851-.916 4.745-2.264.724-.512.756-1.458.095-2.024z"/></symbol></svg>