<?xml version="1.0" encoding="UTF-8" standalone="no" ?>
<!DOCTYPE svg PUBLIC "-//W3C//DTD SVG 1.1//EN" "http://www.w3.org/Graphics/SVG/1.1/DTD/svg11.dtd">
<svg xmlns="http://www.w3.org/2000/svg" xmlns:xlink="http://www.w3.org/1999/xlink" version="1.1" width="500" height="500" viewBox="0 0 500 500" xml:space="preserve">
<desc>Created with Fabric.js 4.6.0</desc>
<defs>
</defs>
<g transform="matrix(0.99 0 0 0.99 249.86 253.06)" id="VGrAGz4MopBEmbY0EJw26"  >
<path style="stroke: none; stroke-width: 1; stroke-dasharray: none; stroke-linecap: butt; stroke-dashoffset: 0; stroke-linejoin: miter; stroke-miterlimit: 4; fill: rgb(0,0,0); fill-rule: nonzero; opacity: 1;" vector-effect="non-scaling-stroke"  transform=" translate(-349.99, -294.01)" d="M 553.07 175.19 C 546.1052000000001 165.3853 536.586 157.147 525.547 150.299 L 523.922 149.2638 C 467.89500000000004 114.6738 397.54200000000003 110.6738 397.54200000000003 110.6738 C 397.54200000000003 110.6738 316.40900000000005 102.3261 240.72200000000004 111.8535 C 264.79200000000003 109.62299999999999 340.54200000000003 110.0332 414.922 188.77949999999998 C 502.74600000000004 281.75649999999996 413.3634 337.6395 353.781 327.5995 C 429.48400000000004 342.2595 513.8910000000001 336.33779999999996 552.471 259.6345 C 569.994 224.7905 567.838 198.2635 555.0022 178.11450000000002 C 575.6582 200.16950000000003 582.9712000000001 231.22350000000003 561.2522 274.60650000000004 C 491.9082 413.1265000000001 279.67220000000003 329.95450000000005 219.4622 297.77450000000005 C 159.2672 265.59450000000004 94.0422 194.63450000000006 146.09519999999998 149.57450000000006 C 152.61079999999998 143.93780000000007 161.40419999999997 139.23050000000006 171.80219999999997 135.31250000000006 C 149.75919999999996 143.02340000000007 131.22019999999998 153.62450000000007 119.37219999999996 168.08950000000004 C 60.70819999999996 239.69450000000006 134.21619999999996 343.3595 202.06719999999996 394.4995 C 269.91919999999993 445.64750000000004 509.11719999999997 577.8395 587.2672 357.67150000000004 C 619.6462 266.4565 594.3063 210.03150000000005 553.0642 175.17150000000004 z" stroke-linecap="round" />
</g>
<g transform="matrix(0.99 0 0 0.99 176.86 155.58)" id="hXmTpTMvvuMwyOHuk2mhC"  >
<path style="stroke: none; stroke-width: 1; stroke-dasharray: none; stroke-linecap: butt; stroke-dashoffset: 0; stroke-linejoin: miter; stroke-miterlimit: 4; fill: rgb(0,0,0); fill-rule: nonzero; opacity: 1;" vector-effect="non-scaling-stroke"  transform=" translate(-276.31, -195.61)" d="M 202.54 271.37 C 200.3408 268.0575 193.4736 254.214 213.94199999999998 232.585 C 236.96499999999997 208.257 294.626 181.413 363.852 188.19 C 363.852 188.19 392.25399999999996 190.1353 405.024 206.049 C 402.6217 202.84980000000002 400.0318 199.59980000000002 397.2271 196.3029 C 331.2271 118.6189 264.0171 118.21289999999999 242.6571 120.4159 C 240.33290000000002 120.74011999999999 238.01260000000002 121.08778 235.704 121.455 C 218.095 124.2675 201.00900000000001 128.3652 185.852 134.232 C 176.9497 137.9429 169.418 142.4039 163.84 147.744 C 126.25 183.748 160.0939 237.21699999999998 202.539 271.36400000000003 z" stroke-linecap="round" />
</g>
</svg>